<svg xmlns="http://www.w3.org/2000/svg" viewBox="0 0 512 512">
  <defs>
    <linearGradient id="bg" x1="0" y1="0" x2="0" y2="1">
      <stop offset="0" stop-color="#0e88c2"/>
      <stop offset="1" stop-color="#074a68"/>
    </linearGradient>
  </defs>
  <rect width="512" height="512" rx="112" fill="url(#bg)"/>
  <!-- 波 -->
  <path d="M40 360 q40 -34 80 0 t80 0 t80 0 t80 0 t80 0" fill="none" stroke="#bfe6f5" stroke-width="14" stroke-linecap="round" opacity="0.55"/>
  <path d="M40 410 q40 -34 80 0 t80 0 t80 0 t80 0 t80 0" fill="none" stroke="#bfe6f5" stroke-width="14" stroke-linecap="round" opacity="0.35"/>
  <!-- 魚 -->
  <g fill="#eaf6fb">
    <path d="M150 230 C200 170 320 170 372 222 C392 200 420 192 446 192 C432 214 432 246 446 268 C420 268 392 260 372 238 C320 290 200 290 150 230 Z"/>
    <circle cx="210" cy="226" r="11" fill="#0b4a66"/>
  </g>
</svg>
